<svg width="181" height="54" viewBox="0 0 181 54" fill="none" xmlns="http://www.w3.org/2000/svg">
<path d="M173.667 53.6665H7.00016C3.3335 53.6665 0.333496 50.6665 0.333496 46.9998V6.99984C0.333496 3.33317 3.3335 0.333174 7.00016 0.333174H173.667C177.334 0.333174 180.334 3.33317 180.334 6.99984V46.9998C180.334 50.6665 177.334 53.6665 173.667 53.6665Z" fill="black"/>
<path d="M173.667 0.333662H7.00016C3.3335 0.333662 0.333496 3.33366 0.333496 7.00033V47.0003C0.333496 50.667 3.3335 53.667 7.00016 53.667H173.667C177.334 53.667 180.334 50.667 180.334 47.0003V7.00033C180.334 3.33366 177.334 0.333662 173.667 0.333662ZM173.667 1.40033C176.755 1.40033 179.267 3.91233 179.267 7.00033V47.0003C179.267 50.0883 176.755 52.6003 173.667 52.6003H7.00016C3.91216 52.6003 1.40017 50.0883 1.40017 47.0003V7.00033C1.40017 3.91233 3.91216 1.40033 7.00016 1.40033H173.667Z" fill="#A6A6A6"/>
<path d="M63.558 13.991C63.558 15.1084 63.2273 15.9977 62.5646 16.6617C61.8113 17.451 60.8313 17.8457 59.626 17.8457C58.47 17.8457 57.4886 17.4457 56.682 16.6444C55.8726 15.8444 55.47 14.851 55.47 13.667C55.47 12.4817 55.8726 11.4897 56.682 10.6884C57.4886 9.88837 58.47 9.48704 59.626 9.48704C60.198 9.48704 60.7473 9.59904 61.2673 9.82304C61.7886 10.047 62.206 10.3444 62.5193 10.7164L61.8153 11.4204C61.286 10.7884 60.5566 10.471 59.626 10.471C58.7833 10.471 58.0553 10.767 57.4406 11.359C56.826 11.9524 56.5193 12.7204 56.5193 13.667C56.5193 14.6124 56.826 15.3817 57.4406 15.9737C58.0553 16.567 58.7833 16.8617 59.626 16.8617C60.5193 16.8617 61.2633 16.5644 61.8606 15.9684C62.2473 15.5804 62.47 15.0417 62.53 14.3484H59.626V13.387H63.502C63.5393 13.5964 63.558 13.7977 63.558 13.991Z" fill="white"/>
<path d="M63.558 13.991C63.558 15.1084 63.2273 15.9977 62.5646 16.6617C61.8113 17.451 60.8313 17.8457 59.626 17.8457C58.47 17.8457 57.4886 17.4457 56.682 16.6444C55.8726 15.8444 55.47 14.851 55.47 13.667C55.47 12.4817 55.8726 11.4897 56.682 10.6884C57.4886 9.88837 58.47 9.48704 59.626 9.48704C60.198 9.48704 60.7473 9.59904 61.2673 9.82304C61.7886 10.047 62.206 10.3444 62.5193 10.7164L61.8153 11.4204C61.286 10.7884 60.5566 10.471 59.626 10.471C58.7833 10.471 58.0553 10.767 57.4406 11.359C56.826 11.9524 56.5193 12.7204 56.5193 13.667C56.5193 14.6124 56.826 15.3817 57.4406 15.9737C58.0553 16.567 58.7833 16.8617 59.626 16.8617C60.5193 16.8617 61.2633 16.5644 61.8606 15.9684C62.2473 15.5804 62.47 15.0417 62.53 14.3484H59.626V13.387H63.502C63.5393 13.5964 63.558 13.7977 63.558 13.991Z" stroke="white" stroke-width="0.266667" stroke-miterlimit="10"/>
<path d="M69.7039 10.6501H66.0612V13.1861H69.3465V14.1475H66.0612V16.6835H69.7039V17.6675H65.0332V9.66748H69.7039V10.6501Z" fill="white"/>
<path d="M69.7039 10.6501H66.0612V13.1861H69.3465V14.1475H66.0612V16.6835H69.7039V17.6675H65.0332V9.66748H69.7039V10.6501Z" stroke="white" stroke-width="0.266667" stroke-miterlimit="10"/>
<path d="M74.0383 17.667H73.0103V10.6497H70.7756V9.66699H76.273V10.6497H74.0383V17.667Z" fill="white"/>
<path d="M74.0383 17.667H73.0103V10.6497H70.7756V9.66699H76.273V10.6497H74.0383V17.667Z" stroke="white" stroke-width="0.266667" stroke-miterlimit="10"/>
<path d="M80.2507 9.66699H81.2787V17.667H80.2507V9.66699Z" fill="white" stroke="white" stroke-width="0.266667" stroke-miterlimit="10"/>
<path d="M85.8379 17.667H84.8099V10.6497H82.5752V9.66699H88.0725V10.6497H85.8379V17.667Z" fill="white"/>
<path d="M85.8379 17.667H84.8099V10.6497H82.5752V9.66699H88.0725V10.6497H85.8379V17.667Z" stroke="white" stroke-width="0.266667" stroke-miterlimit="10"/>
<path d="M93.3724 15.963C93.9644 16.563 94.6884 16.8617 95.5457 16.8617C96.4031 16.8617 97.1271 16.563 97.7191 15.963C98.3111 15.363 98.6084 14.5977 98.6084 13.667C98.6084 12.7364 98.3111 11.9697 97.7191 11.371C97.1271 10.771 96.4031 10.471 95.5457 10.471C94.6884 10.471 93.9644 10.771 93.3724 11.371C92.7817 11.9697 92.4844 12.7364 92.4844 13.667C92.4844 14.5977 92.7817 15.363 93.3724 15.963ZM98.4791 16.6324C97.6924 17.4417 96.7151 17.8457 95.5457 17.8457C94.3764 17.8457 93.3991 17.4417 92.6137 16.6324C91.8271 15.8244 91.4351 14.8364 91.4351 13.667C91.4351 12.4977 91.8271 11.5084 92.6137 10.7004C93.3991 9.89237 94.3764 9.48704 95.5457 9.48704C96.7084 9.48704 97.6831 9.8937 98.4737 10.7057C99.2631 11.5177 99.6577 12.5044 99.6577 13.667C99.6577 14.8364 99.2644 15.8244 98.4791 16.6324Z" fill="white"/>
<path d="M93.3724 15.963C93.9644 16.563 94.6884 16.8617 95.5457 16.8617C96.4031 16.8617 97.1271 16.563 97.7191 15.963C98.3111 15.363 98.6084 14.5977 98.6084 13.667C98.6084 12.7364 98.3111 11.9697 97.7191 11.371C97.1271 10.771 96.4031 10.471 95.5457 10.471C94.6884 10.471 93.9644 10.771 93.3724 11.371C92.7817 11.9697 92.4844 12.7364 92.4844 13.667C92.4844 14.5977 92.7817 15.363 93.3724 15.963ZM98.4791 16.6324C97.6924 17.4417 96.7151 17.8457 95.5457 17.8457C94.3764 17.8457 93.3991 17.4417 92.6137 16.6324C91.8271 15.8244 91.4351 14.8364 91.4351 13.667C91.4351 12.4977 91.8271 11.5084 92.6137 10.7004C93.3991 9.89237 94.3764 9.48704 95.5457 9.48704C96.7084 9.48704 97.6831 9.8937 98.4737 10.7057C99.2631 11.5177 99.6577 12.5044 99.6577 13.667C99.6577 14.8364 99.2644 15.8244 98.4791 16.6324Z" stroke="white" stroke-width="0.266667" stroke-miterlimit="10"/>
<path d="M101.1 17.667V9.66699H102.351L106.239 15.8897H106.284L106.239 14.3483V9.66699H107.268V17.667H106.195L102.127 11.1417H102.083L102.127 12.6843V17.667H101.1Z" fill="white"/>
<path d="M101.1 17.667V9.66699H102.351L106.239 15.8897H106.284L106.239 14.3483V9.66699H107.268V17.667H106.195L102.127 11.1417H102.083L102.127 12.6843V17.667H101.1Z" stroke="white" stroke-width="0.266667" stroke-miterlimit="10"/>
<path d="M142.915 40.3334H145.403V23.6654H142.915V40.3334ZM165.324 29.6694L162.472 36.8961H162.387L159.427 29.6694H156.747L161.185 39.7694L158.656 45.3881H161.249L168.091 29.6694H165.324ZM151.215 38.4401C150.399 38.4401 149.263 38.0334 149.263 37.0241C149.263 35.7387 150.677 35.2454 151.9 35.2454C152.993 35.2454 153.509 35.4814 154.173 35.8027C153.98 37.3467 152.651 38.4401 151.215 38.4401ZM151.515 29.3054C149.713 29.3054 147.847 30.0987 147.076 31.8574L149.284 32.7787C149.756 31.8574 150.635 31.5561 151.557 31.5561C152.844 31.5561 154.152 32.3281 154.173 33.7014V33.8721C153.723 33.6147 152.759 33.2294 151.579 33.2294C149.199 33.2294 146.775 34.5374 146.775 36.9814C146.775 39.2121 148.727 40.6494 150.913 40.6494C152.587 40.6494 153.509 39.8987 154.088 39.0187H154.173V40.3054H156.575V33.9147C156.575 30.9561 154.367 29.3054 151.515 29.3054ZM136.139 31.6987H132.6V25.9854H136.139C137.999 25.9854 139.055 27.5254 139.055 28.8414C139.055 30.1334 137.999 31.6987 136.139 31.6987ZM136.075 23.6654H130.113V40.3334H132.6V34.0187H136.075C138.832 34.0187 141.543 32.0214 141.543 28.8414C141.543 25.6614 138.832 23.6654 136.075 23.6654ZM103.567 38.4427C101.848 38.4427 100.409 37.0041 100.409 35.0281C100.409 33.0307 101.848 31.5694 103.567 31.5694C105.264 31.5694 106.595 33.0307 106.595 35.0281C106.595 37.0041 105.264 38.4427 103.567 38.4427ZM106.424 30.6027H106.337C105.779 29.9374 104.705 29.3361 103.352 29.3361C100.516 29.3361 97.9172 31.8267 97.9172 35.0281C97.9172 38.2067 100.516 40.6774 103.352 40.6774C104.705 40.6774 105.779 40.0761 106.337 39.3881H106.424V40.2054C106.424 42.3747 105.264 43.5347 103.395 43.5347C101.869 43.5347 100.924 42.4387 100.537 41.5147L98.3679 42.4174C98.9906 43.9214 100.645 45.7681 103.395 45.7681C106.316 45.7681 108.787 44.0494 108.787 39.8614V29.6787H106.424V30.6027ZM110.505 40.3334H112.997V23.6641H110.505V40.3334ZM116.669 34.8347C116.605 32.6441 118.367 31.5267 119.633 31.5267C120.623 31.5267 121.46 32.0201 121.739 32.7294L116.669 34.8347ZM124.403 32.9441C123.931 31.6774 122.491 29.3361 119.548 29.3361C116.627 29.3361 114.2 31.6334 114.2 35.0067C114.2 38.1854 116.605 40.6774 119.827 40.6774C122.427 40.6774 123.931 39.0881 124.553 38.1641L122.62 36.8747C121.976 37.8201 121.095 38.4427 119.827 38.4427C118.56 38.4427 117.657 37.8627 117.077 36.7254L124.66 33.5881L124.403 32.9441ZM63.9919 31.0761V33.4814H69.7479C69.5759 34.8347 69.1252 35.8227 68.4386 36.5094C67.5999 37.3481 66.2892 38.2721 63.9919 38.2721C60.4466 38.2721 57.6759 35.4147 57.6759 31.8707C57.6759 28.3254 60.4466 25.4694 63.9919 25.4694C65.9039 25.4694 67.2999 26.2214 68.3306 27.1881L70.0279 25.4907C68.5879 24.1161 66.6772 23.0627 63.9919 23.0627C59.1372 23.0627 55.0559 27.0161 55.0559 31.8707C55.0559 36.7254 59.1372 40.6774 63.9919 40.6774C66.6119 40.6774 68.5879 39.8174 70.1346 38.2067C71.7252 36.6174 72.2186 34.3841 72.2186 32.5787C72.2186 32.0201 72.1759 31.5054 72.0892 31.0761H63.9919ZM78.7639 38.4427C77.0452 38.4427 75.5626 37.0254 75.5626 35.0067C75.5626 32.9654 77.0452 31.5694 78.7639 31.5694C80.4812 31.5694 81.9639 32.9654 81.9639 35.0067C81.9639 37.0254 80.4812 38.4427 78.7639 38.4427ZM78.7639 29.3361C75.6266 29.3361 73.0706 31.7201 73.0706 35.0067C73.0706 38.2721 75.6266 40.6774 78.7639 40.6774C81.8999 40.6774 84.4559 38.2721 84.4559 35.0067C84.4559 31.7201 81.8999 29.3361 78.7639 29.3361ZM91.1812 38.4427C89.4626 38.4427 87.9799 37.0254 87.9799 35.0067C87.9799 32.9654 89.4626 31.5694 91.1812 31.5694C92.8999 31.5694 94.3812 32.9654 94.3812 35.0067C94.3812 37.0254 92.8999 38.4427 91.1812 38.4427ZM91.1812 29.3361C88.0452 29.3361 85.4892 31.7201 85.4892 35.0067C85.4892 38.2721 88.0452 40.6774 91.1812 40.6774C94.3172 40.6774 96.8732 38.2721 96.8732 35.0067C96.8732 31.7201 94.3172 29.3361 91.1812 29.3361Z" fill="white"/>
<path d="M27.9565 26.2324L13.7605 41.2991C13.7618 41.3018 13.7618 41.3058 13.7632 41.3084C14.1992 42.9444 15.6925 44.1484 17.4658 44.1484C18.1752 44.1484 18.8405 43.9564 19.4112 43.6204L19.4565 43.5938L35.4352 34.3738L27.9565 26.2324Z" fill="#EA4335"/>
<path d="M42.3175 23.6667L42.3042 23.6574L35.4055 19.6587L27.6335 26.5747L35.4335 34.3721L42.2949 30.4134C43.4975 29.7627 44.3149 28.4947 44.3149 27.0334C44.3149 25.5801 43.5095 24.3187 42.3175 23.6667Z" fill="#FBBC04"/>
<path d="M13.7601 12.7028C13.6747 13.0175 13.6294 13.3482 13.6294 13.6895V40.3135C13.6294 40.6548 13.6747 40.9855 13.7614 41.2988L28.4441 26.6175L13.7601 12.7028Z" fill="#4285F4"/>
<path d="M28.0611 27.0015L35.4078 19.6561L19.4478 10.4028C18.8678 10.0548 18.1904 9.8548 17.4664 9.8548C15.6931 9.8548 14.1971 11.0615 13.7611 12.6988L13.7598 12.7028L28.0611 27.0015Z" fill="#34A853"/>
</svg>
